<mxfile host="65bd71144e">
    <diagram name="Page-1" id="jdYL99m2VUTQUMrYR2Y5">
        <mxGraphModel dx="829" dy="1648" grid="1" gridSize="10" guides="1" tooltips="1" connect="1" arrows="1" fold="1" page="1" pageScale="1" pageWidth="850" pageHeight="1100" math="0" shadow="0">
            <root>
                <mxCell id="0"/>
                <mxCell id="1" parent="0"/>
                <mxCell id="F2aiOwVzaYVkHtGy7D9O-1" value="&lt;div align=&quot;left&quot; style=&quot;font-family: &amp;quot;Droid Sans Mono&amp;quot;, &amp;quot;monospace&amp;quot;, monospace; font-weight: normal; line-height: 19px; font-size: 10px;&quot;&gt;&lt;div&gt;&lt;font color=&quot;#c6c1b9&quot; data-darkreader-inline-color=&quot;&quot; style=&quot;--darkreader-inline-color: #c3bdb5; font-size: 10px;&quot;&gt;--- Request&lt;/font&gt;&lt;/div&gt;&lt;div&gt;&lt;font color=&quot;#c6c1b9&quot; data-darkreader-inline-color=&quot;&quot; style=&quot;--darkreader-inline-color: #c3bdb5; font-size: 10px;&quot;&gt;&lt;span style=&quot;&quot;&gt;GET /profile HTTP/1.1&lt;/span&gt;&lt;/font&gt;&lt;/div&gt;&lt;div&gt;&lt;font color=&quot;#c6c1b9&quot; data-darkreader-inline-color=&quot;&quot; style=&quot;--darkreader-inline-color: #c3bdb5; font-size: 10px;&quot;&gt;&lt;span style=&quot;&quot;&gt;User-Agent: Mozilla/5.0 (X11; Linux x86_64)&lt;/span&gt;&lt;/font&gt;&lt;/div&gt;&lt;div&gt;&lt;font color=&quot;#c6c1b9&quot; data-darkreader-inline-color=&quot;&quot; style=&quot;--darkreader-inline-color: #c3bdb5; font-size: 10px;&quot;&gt;&lt;span style=&quot;&quot;&gt;Host: www.example.com&lt;/span&gt;&lt;/font&gt;&lt;/div&gt;&lt;div&gt;&lt;font color=&quot;#c6c1b9&quot; data-darkreader-inline-color=&quot;&quot; style=&quot;--darkreader-inline-color: #c3bdb5; font-size: 10px;&quot;&gt;&lt;span style=&quot;&quot;&gt;Accept-Language: en-us&lt;/span&gt;&lt;/font&gt;&lt;/div&gt;&lt;div&gt;&lt;font color=&quot;#c6c1b9&quot; data-darkreader-inline-color=&quot;&quot; style=&quot;--darkreader-inline-color: #c3bdb5; font-size: 10px;&quot;&gt;&lt;span style=&quot;&quot;&gt;Cookie: user_session=&lt;/span&gt;&lt;/font&gt;&lt;font color=&quot;#ff0000&quot;&gt;███████████████████████████████████████&lt;/font&gt;&lt;/div&gt;&lt;div&gt;&lt;font color=&quot;#c6c1b9&quot; data-darkreader-inline-color=&quot;&quot; style=&quot;--darkreader-inline-color: #c3bdb5; font-size: 10px;&quot;&gt;&lt;span style=&quot;&quot;&gt;Connection: Keep-Alive&lt;/span&gt;&lt;/font&gt;&lt;/div&gt;&lt;font color=&quot;#c6c1b9&quot; data-darkreader-inline-color=&quot;&quot; style=&quot;--darkreader-inline-color: #c3bdb5; font-size: 10px;&quot;&gt;&lt;br&gt;&lt;/font&gt;&lt;div&gt;&lt;font color=&quot;#c6c1b9&quot; data-darkreader-inline-color=&quot;&quot; style=&quot;--darkreader-inline-color: #c3bdb5; font-size: 10px;&quot;&gt;&lt;span style=&quot;&quot;&gt;--- Response&lt;/span&gt;&lt;/font&gt;&lt;/div&gt;&lt;div&gt;&lt;font color=&quot;#c6c1b9&quot; data-darkreader-inline-color=&quot;&quot; style=&quot;--darkreader-inline-color: #c3bdb5; font-size: 10px;&quot;&gt;&lt;span style=&quot;&quot;&gt;HTTP/1.1 200 OK&lt;/span&gt;&lt;/font&gt;&lt;/div&gt;&lt;div&gt;&lt;font color=&quot;#c6c1b9&quot; data-darkreader-inline-color=&quot;&quot; style=&quot;--darkreader-inline-color: #c3bdb5; font-size: 10px;&quot;&gt;&lt;span style=&quot;&quot;&gt;Date: Wed, 14 Jun 2023 16:10:53 GMT&lt;/span&gt;&lt;/font&gt;&lt;/div&gt;&lt;div&gt;&lt;font color=&quot;#c6c1b9&quot; data-darkreader-inline-color=&quot;&quot; style=&quot;--darkreader-inline-color: #c3bdb5; font-size: 10px;&quot;&gt;&lt;span style=&quot;&quot;&gt;Server: Apache/2.2.14 (Win32)&lt;/span&gt;&lt;/font&gt;&lt;/div&gt;&lt;div&gt;&lt;font color=&quot;#c6c1b9&quot; data-darkreader-inline-color=&quot;&quot; style=&quot;--darkreader-inline-color: #c3bdb5; font-size: 10px;&quot;&gt;&lt;span style=&quot;&quot;&gt;Last-Modified: Sat, 03 Jan 2009 19:15:56 GMT&lt;/span&gt;&lt;/font&gt;&lt;/div&gt;&lt;div&gt;&lt;font color=&quot;#c6c1b9&quot; data-darkreader-inline-color=&quot;&quot; style=&quot;--darkreader-inline-color: #c3bdb5; font-size: 10px;&quot;&gt;&lt;span style=&quot;&quot;&gt;Content-Length: 74&lt;/span&gt;&lt;/font&gt;&lt;/div&gt;&lt;div&gt;&lt;font color=&quot;#c6c1b9&quot; data-darkreader-inline-color=&quot;&quot; style=&quot;--darkreader-inline-color: #c3bdb5; font-size: 10px;&quot;&gt;&lt;span style=&quot;&quot;&gt;Content-Type: application/json&lt;/span&gt;&lt;/font&gt;&lt;/div&gt;&lt;div&gt;&lt;font color=&quot;#c6c1b9&quot; data-darkreader-inline-color=&quot;&quot; style=&quot;--darkreader-inline-color: #c3bdb5; font-size: 10px;&quot;&gt;&lt;span style=&quot;&quot;&gt;Connection: Closed&lt;/span&gt;&lt;/font&gt;&lt;/div&gt;&lt;/div&gt;&lt;br&gt;&lt;div align=&quot;left&quot; style=&quot;font-family: &amp;quot;Droid Sans Mono&amp;quot;, &amp;quot;monospace&amp;quot;, monospace; font-weight: normal; line-height: 19px; font-size: 10px;&quot;&gt;&lt;div&gt;&lt;font color=&quot;#c6c1b9&quot; data-darkreader-inline-color=&quot;&quot; style=&quot;--darkreader-inline-color: #c3bdb5; font-size: 10px;&quot;&gt;&lt;span style=&quot;&quot;&gt;{&quot;username&quot;:&quot;john123&quot;,&quot;address&quot;:&quot;&lt;/span&gt;&lt;/font&gt;&lt;font color=&quot;#ff0000&quot;&gt;█████████████████████████&lt;/font&gt;&lt;font style=&quot;--darkreader-inline-color: #c3bdb5;&quot; color=&quot;#c6c1b9&quot; data-darkreader-inline-color=&quot;&quot;&gt;&quot;,&quot;birthday&quot;:&quot;&lt;/font&gt;&lt;font color=&quot;#ff0000&quot;&gt;█████████████&lt;/font&gt;&lt;font color=&quot;#c6c1b9&quot;&gt;&quot;}&lt;/font&gt;&lt;/div&gt;&lt;/div&gt;" style="text;strokeColor=none;align=left;fillColor=#131516;html=1;verticalAlign=middle;whiteSpace=wrap;rounded=0;labelBackgroundColor=#131516;strokeWidth=0;" parent="1" vertex="1">
                    <mxGeometry x="60" y="-950" width="540" height="350" as="geometry"/>
                </mxCell>
            </root>
        </mxGraphModel>
    </diagram>
</mxfile>